<svg width="250" height="250" viewBox="0 0 250 250" fill="none" xmlns="http://www.w3.org/2000/svg">
<rect width="250" height="250" rx="100" fill="url(#paint0_linear_3522_157)"/>
<rect width="250" height="250" rx="100" fill="url(#paint1_linear_3522_157)"/>
<path d="M50 155C50 160.523 54.4772 165 60 165H73.75C87.5571 165 98.75 176.193 98.75 190C98.75 195.523 103.227 200 108.75 200H95C70.1472 200 50 179.853 50 155ZM200 156.875C200 180.692 180.692 200 156.875 200H131.25C121.585 200 113.75 192.165 113.75 182.5C113.75 172.835 121.585 165 131.25 165H150C156.904 165 162.5 159.404 162.5 152.5C162.5 145.596 156.904 140 150 140H60C54.4772 140 50 144.477 50 150V100C50 105.523 54.4772 110 60 110H150C156.904 110 162.5 104.404 162.5 97.5C162.5 90.5964 156.904 85 150 85H131.25C121.585 85 113.75 77.165 113.75 67.5C113.75 57.835 121.585 50 131.25 50H156.875C180.692 50 200 69.3077 200 93.125V156.875ZM108.75 50C103.227 50 98.75 54.4772 98.75 60C98.75 73.8071 87.5571 85 73.75 85H60C54.4772 85 50 89.4772 50 95C50 70.1472 70.1472 50 95 50H108.75Z" fill="white"/>
<defs>
<linearGradient id="paint0_linear_3522_157" x1="125" y1="0" x2="125" y2="250" gradientUnits="userSpaceOnUse">
<stop stop-color="#0F2027"/>
<stop offset="0.5" stop-color="#203A43"/>
<stop offset="1" stop-color="#2C5364"/>
</linearGradient>
<linearGradient id="paint1_linear_3522_157" x1="125" y1="0" x2="125" y2="250" gradientUnits="userSpaceOnUse">
<stop stop-color="#1A2A6C"/>
<stop offset="0.5" stop-color="#B21F1F"/>
<stop offset="1" stop-color="#FDBB2D"/>
</linearGradient>
</defs>
</svg>
